<?xml version="1.0" standalone="no"?>
<!DOCTYPE svg PUBLIC "-//W3C//DTD SVG 20010904//EN"
 "http://www.w3.org/TR/2001/REC-SVG-20010904/DTD/svg10.dtd">
<svg version="1.0" xmlns="http://www.w3.org/2000/svg"
 width="528.000000pt" height="560.000000pt" viewBox="0 0 528.000000 560.000000"
 preserveAspectRatio="xMidYMid meet">

<g transform="translate(0.000000,560.000000) scale(0.100000,-0.100000)"
fill="#000000" stroke="none">
<path d="M2408 3991 c-123 -24 -157 -35 -243 -80 -217 -112 -415 -436 -456
-746 -18 -139 4 -315 39 -315 6 0 10 42 9 98 -1 202 86 391 217 467 23 13 91
42 151 63 61 22 119 43 129 48 19 7 19 7 0 -25 -16 -28 -17 -33 -4 -42 17 -12
174 -5 263 11 116 22 314 96 378 142 13 9 28 2 80 -42 98 -82 190 -138 307
-186 146 -61 178 -84 210 -152 22 -48 27 -77 33 -193 7 -141 14 -179 29 -179
39 0 46 266 11 429 -45 211 -118 357 -237 478 -70 71 -95 88 -195 137 -168 82
-238 98 -449 102 -139 3 -195 -1 -272 -15z"/>
<path d="M2132 3001 c-72 -21 -162 -79 -182 -116 -12 -22 -11 -28 2 -42 15
-15 20 -13 63 25 76 66 138 86 277 86 95 0 118 3 123 15 3 8 -1 21 -10 30 -24
24 -193 26 -273 2z"/>
<path d="M2897 3008 c-21 -7 -27 -16 -25 -31 3 -21 8 -22 123 -22 114 0 123
-2 185 -31 36 -18 80 -46 98 -63 27 -25 37 -29 53 -21 28 15 24 31 -18 72 -73
70 -184 108 -307 107 -45 0 -94 -5 -109 -11z"/>
<path d="M2194 2730 c-12 -4 -31 -21 -44 -37 -46 -58 1 -143 79 -143 97 0 128
130 41 175 -32 17 -45 18 -76 5z"/>
<path d="M3014 2721 c-42 -26 -58 -72 -40 -116 17 -39 42 -55 88 -55 68 0 114
70 84 128 -30 58 -82 75 -132 43z"/>
<path d="M2420 2033 c0 -64 54 -149 113 -180 138 -72 305 8 332 160 l7 37
-226 0 c-209 0 -226 -1 -226 -17z"/>
<path d="M1610 1075 c-255 -151 -445 -407 -521 -699 -20 -75 -27 -121 -45
-308 l-7 -68 1603 0 1603 0 -7 103 c-17 240 -41 339 -124 507 -28 57 -127 201
-173 254 -46 50 -154 142 -224 188 -88 58 -117 68 -191 68 l-71 0 -7 -42 c-18
-115 -127 -240 -272 -313 -372 -186 -946 -135 -1196 107 -69 67 -113 141 -124
207 l-7 41 -81 0 c-78 0 -84 -2 -156 -45z"/>
</g>
</svg>
